# This file uses centimeters as units for non-parametric coordinates.

mtllib Monolith.mtl
g default
v -0.056691 -4.072284 -4.276668
v -4.343952 -4.072284 0.010592
v -0.056692 -4.072284 4.297853
v 4.230569 -4.072284 0.010592
v -0.056691 0.875495 -5.602242
v -5.669526 0.875495 0.010592
v -0.056692 0.875495 5.623426
v 5.556142 0.875495 0.010592
v -0.056691 17.894216 -3.421435
v -3.488715 17.894216 0.010592
v -0.056692 17.894216 3.442616
v 3.375332 17.894216 0.010592
v -0.056691 19.279789 -2.153685
v -2.220969 19.279789 0.010592
v -0.056692 19.279789 2.174870
v 2.107586 19.279789 0.010592
v -0.056692 23.504216 0.010592
v 4.977135 -0.084069 0.010592
v -0.056692 -0.084069 5.044419
v -5.090519 -0.084069 0.010592
v -0.056691 -0.084069 -5.023234
v -1.369532 6.846237 -4.289401
v -4.356686 6.846237 -1.302248
v -2.129449 12.432503 -3.146344
v -3.184179 12.413672 -2.089316
v -3.196057 15.903603 -1.302248
v -3.606812 13.178552 -1.647438
v -3.397346 14.727147 -1.820707
v -1.369532 15.903603 -3.128773
v -2.325225 15.518718 -2.876837
v -2.970150 15.507203 -2.230507
v -1.702254 13.212558 -3.556144
v -1.902593 14.753835 -3.318716
vt 0.533399 0.263441
vt 0.533692 0.263980
vt 0.223176 0.074131
vt 0.223267 0.076436
vt 0.532584 0.263973
vt 0.222814 0.074265
vt 0.534554 0.261529
vt 0.557167 0.072968
vt 0.977309 0.016304
vt 0.202892 0.024774
vt 0.555992 0.311695
vt 0.911546 0.808314
vt 0.203573 0.024817
vt 0.556776 0.312057
vt 0.605129 0.016412
vt 0.670992 0.805568
vt 0.160942 0.316012
vt 0.160942 0.316033
vt 0.232926 0.527327
vt 0.160969 0.316022
vt 0.160942 0.316023
vt 0.731040 0.583267
vt 0.694070 0.290475
vt 0.755617 0.547476
vt 0.822909 0.547480
vt 0.889389 0.291048
vt 0.850001 0.583412
vt 0.814086 0.686409
vt 0.836725 0.654834
vt 0.854647 0.712110
vt 0.745927 0.654103
vt 0.771364 0.686927
vt 0.727145 0.709726
vt 0.223102 0.074036
vt 0.604559 0.010524
vt 0.368065 0.384740
vt 0.905650 0.815536
vt 0.368833 0.385152
vt 0.249806 0.263175
vt 0.327805 0.306127
vt 0.368063 0.384737
vt 0.327805 0.306112
vt 0.677342 0.814119
vt 0.368051 0.384729
vt 0.304883 0.316012
vt 0.676600 0.815514
vt 0.578061 0.024661
vt 0.978517 0.009128
vt 0.576070 0.024077
vt 0.577015 0.025177
vt 0.978521 0.009118
vt 0.328400 0.306474
vt 0.511949 0.388250
vt 0.222919 0.594472
vt 0.314596 0.474547
vt 0.545678 0.472319
vt 0.639854 0.590966
vt 0.597189 0.830422
vt 0.505218 0.950765
vt 0.363947 0.952055
vt 0.269818 0.833264
vt 0.304910 0.316031
vt 0.232948 0.527321
vt 0.232897 0.527318
vt 0.232928 0.527318
vt 0.304883 0.316009
vt 0.304883 0.316023
vt 0.603921 0.009082
vt 0.905669 0.815535
vt 0.603917 0.009082
vt 0.676612 0.815516
vt 0.977879 0.010499
vt 0.905612 0.814075
vt 0.555993 0.311675
vt 0.511962 0.388236
vt 0.555993 0.311672
vt 0.511964 0.388235
vt 0.327805 0.306131
vt 0.513110 0.388331
vt 0.002822 0.179038
vt 0.165430 0.180431
vt 0.166824 0.017823
vt 0.004215 0.016429
vt 0.557702 0.074244
vt 0.204882 0.024125
vt 0.558667 0.073944
vt 0.203939 0.025167
vt 0.558091 0.073933
vt 0.577380 0.024669
vt 0.252465 0.263148
vt 0.248258 0.263662
vt 0.251028 0.264703
vn 0.000000 -0.183997 -0.982927
vn -0.982927 -0.183997 -0.000000
vn -0.955504 -0.294979 -0.000000
vn 0.000000 -0.294979 -0.955504
vn 0.000000 -0.183997 0.982927
vn -0.000000 -0.294979 0.955504
vn 0.982927 -0.183997 0.000000
vn 0.955504 -0.294979 0.000000
vn -0.738957 0.045848 0.672190
vn -0.000000 0.093123 0.995655
vn -0.000000 0.148207 0.988956
vn -0.720848 0.122843 0.682120
vn 0.995655 0.093123 0.000000
vn 0.988956 0.148207 0.000000
vn 0.672191 0.045848 -0.738957
vn 0.682120 0.122843 -0.720848
vn -0.795095 0.606485 0.000000
vn -0.000000 0.606486 -0.795094
vn 0.000000 0.606485 0.795095
vn 0.795095 0.606485 0.000000
vn 0.000000 -1.000000 0.000000
vn 0.000000 -1.000000 0.000000
vn 0.000000 -1.000000 0.000000
vn 0.000000 -1.000000 0.000000
vn -0.664826 0.340607 -0.664826
vn -0.664826 0.340607 0.664826
vn 0.664826 0.340607 0.664826
vn 0.664826 0.340607 -0.664826
vn -0.412620 0.102532 -0.905114
vn -0.618008 0.044418 -0.784916
vn -0.708033 0.016022 -0.705998
vn -0.706480 0.016047 -0.707551
vn -0.784696 0.044313 -0.618294
vn -0.904477 0.102191 -0.414099
vn -0.707124 0.014866 -0.706933
vn -0.707124 0.014866 -0.706933
vn -0.689431 0.248415 -0.680423
vn -0.895352 0.097943 -0.434456
vn -0.874862 0.209297 -0.436819
vn -0.935242 0.120196 -0.332980
vn -0.935242 0.120196 -0.332980
vn -0.435260 0.098051 -0.894950
vn -0.681597 0.249178 -0.687994
vn -0.434458 0.209077 -0.876090
vn -0.647643 0.402184 -0.647153
vn -0.647643 0.402184 -0.647153
vn -0.330349 0.120684 -0.936112
vn -0.330349 0.120684 -0.936112
s 1
g pCone1
usemtl initialShadingGroup
f 1/1/1 2/91/2 20/3/3 21/84/4
f 2/2/2 3/90/5 19/6/6 20/86/3
f 3/5/5 4/39/7 18/34/8 19/88/6
f 4/7/7 1/92/1 21/4/4 18/8/8
f 6/70/9 7/51/10 11/69/11 10/71/12
f 7/68/10 8/48/13 12/37/14 11/46/11
f 8/35/13 5/72/15 9/73/16 12/43/14
f 9/52/16 10/14/12 14/79/17 13/38/18
f 10/78/12 11/76/11 15/77/19 14/36/17
f 11/40/11 12/74/14 16/75/20 15/41/19
f 12/42/14 9/11/16 13/53/18 16/44/20
s off
f 1/81/21 4/80/22 3/83/23 2/82/24
s 1
f 13/17/18 14/67/17 17/64/25
f 14/18/17 15/66/19 17/63/26
f 15/20/19 16/62/20 17/19/27
f 16/21/20 13/45/18 17/65/28
f 19/88/6 18/34/8 8/13/13 7/89/10
f 20/86/3 19/6/6 7/10/10 6/47/9
f 21/84/4 20/3/3 6/87/9 5/50/15
f 18/8/8 21/4/4 5/85/15 8/49/13
s 2
f 32/22/29 22/23/30 24/24/31
f 25/25/32 23/26/33 27/27/34
f 5/15/35 6/9/36 23/26/33 25/25/32 24/24/31 22/23/30
f 31/28/37 28/29/38 26/30/39
f 6/9/40 10/12/41 26/30/39 28/29/38 27/27/34 23/26/33
f 33/31/42 30/32/43 29/33/44
usemtl lambert2SG
f 32/54/29 24/55/31 25/56/32 27/57/34 28/58/38 31/59/37 30/60/43 33/61/42
usemtl initialShadingGroup
f 10/12/45 9/16/46 29/33/44 30/32/43 31/28/37 26/30/39
f 9/16/47 5/15/48 22/23/30 32/22/29 33/31/42 29/33/44
